<?xml version="1.0" standalone="no"?>
<!DOCTYPE svg PUBLIC "-//W3C//DTD SVG 20010904//EN"
 "http://www.w3.org/TR/2001/REC-SVG-20010904/DTD/svg10.dtd">
<svg version="1.0" xmlns="http://www.w3.org/2000/svg"
 width="300.000000pt" height="300.000000pt" viewBox="0 0 300.000000 300.000000"
 preserveAspectRatio="xMidYMid meet">
<metadata>
Created by potrace 1.14, written by Peter Selinger 2001-2017
</metadata>
<g transform="translate(0.000000,300.000000) scale(0.100000,-0.100000)"
fill="#000000" stroke="none">
<path d="M0 1500 l0 -1500 1500 0 1500 0 0 1500 0 1500 -1500 0 -1500 0 0
-1500z m1708 163 c3 -31 22 -48 22 -20 0 8 10 22 23 33 l22 19 -19 -23 c-17
-19 -17 -22 -3 -16 14 5 17 0 16 -32 0 -34 -2 -36 -9 -16 -13 32 -20 27 -20
-15 0 -28 3 -34 10 -23 8 12 10 11 10 -8 0 -13 -11 -33 -24 -45 -16 -15 -26
-38 -31 -77 -9 -71 -25 -100 -76 -143 -77 -66 -158 -79 -174 -27 -9 27 -1 36
37 44 35 7 29 22 -12 28 -35 4 -28 22 12 29 31 6 31 6 -12 9 -32 2 -37 4 -17
7 15 2 27 7 27 11 -1 24 -14 52 -25 52 -17 0 -28 32 -14 40 6 5 7 10 2 13 -15
9 15 140 34 155 9 6 21 12 27 12 5 0 3 -6 -6 -12 -27 -22 -28 -54 -2 -69 13
-7 24 -16 24 -20 0 -5 7 -6 15 -3 8 4 22 1 30 -6 12 -10 14 -8 10 8 -3 16 4
23 28 31 40 14 25 32 -35 42 l-43 6 50 1 c28 1 57 -4 65 -11 13 -10 12 -15
-10 -37 -14 -13 -27 -23 -30 -21 -2 1 -6 -2 -8 -8 -7 -21 13 -11 54 27 40 36
51 69 29 89 -4 5 -5 -7 -1 -26 5 -29 4 -32 -9 -21 -8 6 -13 17 -12 23 1 6 -5
12 -13 13 -62 5 -65 7 -25 14 68 13 80 9 83 -27z m-141 11 c-3 -3 -12 -4 -19
-1 -8 3 -5 6 6 6 11 1 17 -2 13 -5z m121 -466 c-4 -57 -8 -121 -10 -143 l-3
-40 -38 73 c-36 70 -38 72 -74 72 l-37 0 35 -34 c72 -72 81 -84 74 -97 -5 -7
-4 -10 3 -5 15 9 32 -25 32 -62 0 -30 -14 -42 -51 -42 -15 0 -19 7 -19 39 0
23 -8 48 -20 64 -11 14 -20 40 -20 60 0 26 -7 41 -26 56 l-25 20 39 20 c34 17
73 51 59 51 -3 0 -25 -11 -48 -25 -47 -27 -59 -30 -59 -16 0 5 13 11 29 14 15
3 50 23 77 43 36 27 43 30 25 10 -14 -14 -19 -26 -13 -26 6 0 24 16 39 35 15
19 30 35 33 35 3 0 2 -46 -2 -102z m-243 -19 c20 -12 35 -22 33 -23 -2 -1 -10
-7 -19 -14 -14 -11 -20 -7 -38 23 -11 19 -18 35 -16 35 2 0 20 -10 40 -21z"/>
<path d="M1711 1604 c0 -11 3 -14 6 -6 3 7 2 16 -1 19 -3 4 -6 -2 -5 -13z"/>
<path d="M1530 1494 c0 -9 16 -36 35 -60 41 -50 43 -58 13 -49 -23 7 -23 7 -3
-8 37 -28 49 9 18 53 -10 14 -17 27 -15 30 1 3 -1 5 -5 5 -15 0 -33 17 -28 25
3 5 1 11 -5 15 -5 3 -10 -1 -10 -11z"/>
<path d="M1457 1469 c7 -7 15 -10 18 -7 3 3 -2 9 -12 12 -14 6 -15 5 -6 -5z"/>
<path d="M1490 1460 c0 -5 7 -10 15 -10 8 0 15 5 15 10 0 6 -7 10 -15 10 -8 0
-15 -4 -15 -10z"/>
<path d="M1570 1061 c0 -10 19 -25 25 -20 1 2 -3 10 -11 17 -8 7 -14 8 -14 3z"/>
<path d="M1610 969 c0 -5 5 -7 10 -4 6 3 10 8 10 11 0 2 -4 4 -10 4 -5 0 -10
-5 -10 -11z"/>
</g>
</svg>
